<svg version="1.1" xmlns="http://www.w3.org/2000/svg" xmlns:xlink="http://www.w3.org/1999/xlink" width="96.000000pt" height="96.000000pt" viewBox="0,0,256,256"><g fill="#000000" fill-rule="nonzero" stroke="none" stroke-width="1" stroke-linecap="butt" stroke-linejoin="miter" stroke-miterlimit="10" stroke-dasharray="" stroke-dashoffset="0" font-family="none" font-weight="none" font-size="none" text-anchor="none" style="mix-blend-mode: normal"><g transform="translate(0,-0.06415) scale(2.66667,2.66667)"><g transform="translate(0,96) scale(0.1,-0.1)"><path d="M470,925c0,-19 5,-35 10,-35c6,0 10,16 10,35c0,19 -4,35 -10,35c-5,0 -10,-16 -10,-35z"></path><path d="M407,874c-3,-3 -1,-15 6,-25c15,-24 4,-34 -63,-58c-53,-19 -78,-41 -46,-41c9,0 16,-4 16,-10c0,-5 -14,-10 -31,-10c-42,0 -33,-23 12,-30c22,-3 30,-8 22,-13c-34,-22 -2,-27 157,-27c159,0 191,5 158,27c-9,5 -1,10 21,13c45,7 54,30 12,30c-17,0 -31,5 -31,10c0,6 7,10 16,10c32,0 7,22 -46,41c-67,24 -78,34 -63,58c7,10 9,22 6,25c-8,8 -138,8 -146,0zM510,835c0,-10 -10,-15 -30,-15c-20,0 -30,5 -30,15c0,10 10,15 30,15c20,0 30,-5 30,-15zM513,783c-18,-2 -48,-2 -65,0c-18,2 -4,4 32,4c36,0 50,-2 33,-4zM610,740c0,-6 -37,-10 -91,-10c-68,0 -90,-3 -87,-12c3,-9 36,-15 94,-19c81,-5 77,-5 -46,-6c-74,0 -122,2 -106,6c41,9 46,31 7,31c-17,0 -31,5 -31,10c0,6 50,10 130,10c80,0 130,-4 130,-10z"></path><path d="M386,642c-2,-4 4,-43 15,-87c31,-124 34,-234 14,-400c-10,-80 -15,-149 -11,-152c15,-16 25,21 41,156c20,166 17,260 -15,399c-20,84 -31,105 -44,84z"></path><path d="M434,614c6,-34 28,-64 46,-64c18,0 40,30 46,64c5,30 4,38 -7,34c-7,-2 -17,-19 -21,-36c-11,-41 -25,-41 -36,0c-4,17 -14,34 -21,36c-11,4 -12,-4 -7,-34z"></path><path d="M531,560c-25,-108 -25,-110 -8,-110c9,0 20,30 33,88c22,103 22,104 8,109c-8,3 -20,-30 -33,-87z"></path><path d="M507,423c-22,-21 16,-412 41,-421c16,-5 15,16 -3,153c-8,61 -15,147 -15,193c0,75 -6,93 -23,75z"></path><path d="M470,75c0,-43 4,-75 10,-75c6,0 10,32 10,75c0,43 -4,75 -10,75c-6,0 -10,-32 -10,-75z"></path></g></g></g><g fill="none" fill-rule="nonzero" stroke="none" stroke-width="none" stroke-linecap="butt" stroke-linejoin="miter" stroke-miterlimit="10" stroke-dasharray="" stroke-dashoffset="0" font-family="none" font-weight="none" font-size="none" text-anchor="none" style="mix-blend-mode: normal"><g fill="#000000" stroke="none" stroke-width="1"><path d="M52.76167,123.15v7.37h-5.42l-0.94,-4.95c-0.62667,-0.39333 -1.54333,-0.74 -2.75,-1.04c-1.2,-0.29333 -2.47667,-0.44 -3.83,-0.44v0c-1.98,0 -3.51,0.41667 -4.59,1.25c-1.08,0.83333 -1.62,1.91 -1.62,3.23v0c0,1.22 0.56333,2.22 1.69,3c1.13333,0.78667 3.08333,1.61667 5.85,2.49v0c3.98,1.10667 6.99667,2.56667 9.05,4.38c2.05333,1.81333 3.08,4.19667 3.08,7.15v0c0,3.08 -1.22,5.51 -3.66,7.29c-2.44667,1.78667 -5.66333,2.68 -9.65,2.68v0c-2.85333,0 -5.43,-0.45333 -7.73,-1.36c-2.30667,-0.91333 -4.22667,-2.16667 -5.76,-3.76v0v-7.53h5.6l0.76,5.13c0.72667,0.59333 1.71333,1.08333 2.96,1.47c1.24667,0.38667 2.63667,0.58 4.17,0.58v0c1.98,0 3.48333,-0.40333 4.51,-1.21c1.03333,-0.81333 1.55,-1.89333 1.55,-3.24v0c0,-1.38667 -0.49,-2.5 -1.47,-3.34c-0.98667,-0.84667 -2.70667,-1.64 -5.16,-2.38v0c-4.27333,-1.23333 -7.50667,-2.7 -9.7,-4.4c-2.19333,-1.7 -3.29,-4.02667 -3.29,-6.98v0c0,-2.92 1.23667,-5.30667 3.71,-7.16c2.47333,-1.85333 5.58333,-2.80667 9.33,-2.86v0c2.76667,0 5.29,0.42 7.57,1.26c2.27333,0.84 4.18667,1.96333 5.74,3.37zM69.11167,155.56v0c-3.86,0 -6.94333,-1.23667 -9.25,-3.71c-2.31333,-2.48 -3.47,-5.62333 -3.47,-9.43v0v-0.99c0,-3.97333 1.09333,-7.24667 3.28,-9.82c2.18667,-2.57333 5.12,-3.85333 8.8,-3.84v0c3.61333,0 6.41667,1.09 8.41,3.27c1.99333,2.17333 2.99,5.11667 2.99,8.83v0v3.93h-15.98l-0.05,0.15c0.13333,1.76667 0.72333,3.22 1.77,4.36c1.04667,1.13333 2.47,1.7 4.27,1.7v0c1.6,0 2.92667,-0.16 3.98,-0.48c1.05333,-0.32 2.20667,-0.82667 3.46,-1.52v0l1.96,4.45c-1.10667,0.87333 -2.53667,1.61 -4.29,2.21c-1.76,0.59333 -3.72,0.89 -5.88,0.89zM68.47167,133.34v0c-1.34,0 -2.39667,0.51 -3.17,1.53c-0.77333,1.02667 -1.25,2.37333 -1.43,4.04v0l0.07,0.12h8.86v-0.64c0,-1.53333 -0.36,-2.76 -1.08,-3.68c-0.72,-0.91333 -1.80333,-1.37 -3.25,-1.37zM96.10167,155.56v0c-3.86,0 -6.94333,-1.23667 -9.25,-3.71c-2.30667,-2.48 -3.46,-5.62333 -3.46,-9.43v0v-0.99c0,-3.97333 1.09,-7.24667 3.27,-9.82c2.18667,-2.57333 5.12,-3.85333 8.8,-3.84v0c3.61333,0 6.41667,1.09 8.41,3.27c1.99333,2.17333 2.99,5.11667 2.99,8.83v0v3.93h-15.98l-0.05,0.15c0.13333,1.76667 0.72333,3.22 1.77,4.36c1.04667,1.13333 2.47,1.7 4.27,1.7v0c1.6,0 2.92667,-0.16 3.98,-0.48c1.05333,-0.32 2.20667,-0.82667 3.46,-1.52v0l1.96,4.45c-1.10667,0.87333 -2.53667,1.61 -4.29,2.21c-1.76,0.59333 -3.72,0.89 -5.88,0.89zM95.46167,133.34v0c-1.34,0 -2.39667,0.51 -3.17,1.53c-0.77333,1.02667 -1.25,2.37333 -1.43,4.04v0l0.07,0.12h8.86v-0.64c0,-1.53333 -0.36,-2.76 -1.08,-3.68c-0.71333,-0.91333 -1.79667,-1.37 -3.25,-1.37zM172.92167,155.04h-8.34c-0.2,-0.44667 -0.37333,-0.90667 -0.52,-1.38c-0.14667,-0.46667 -0.26333,-0.94 -0.35,-1.42v0c-0.85333,0.99333 -1.89667,1.79333 -3.13,2.4c-1.22667,0.61333 -2.63,0.92 -4.21,0.92v0c-2.62667,0 -4.71,-0.71333 -6.25,-2.14c-1.54,-1.42667 -2.31,-3.37 -2.31,-5.83v0c0,-2.50667 1.00667,-4.44333 3.02,-5.81c2.00667,-1.37333 4.95667,-2.06 8.85,-2.06v0h3.69v-2.62c0,-1.28667 -0.37333,-2.28333 -1.12,-2.99c-0.74,-0.71333 -1.83667,-1.07 -3.29,-1.07v0c-0.82,0 -1.55333,0.09667 -2.2,0.29c-0.64,0.18667 -1.16,0.41333 -1.56,0.68v0l-0.47,2.87h-5.44l0.03,-5.94c1.32,-0.89333 2.83333,-1.64333 4.54,-2.25c1.70667,-0.61333 3.56333,-0.92 5.57,-0.92v0c3.32,0 6.01333,0.81333 8.08,2.44c2.07333,1.62667 3.11,3.94 3.11,6.94v0v11.06c0,0.41333 0.00333,0.8 0.01,1.16c0.00667,0.36667 0.03667,0.71333 0.09,1.04v0l2.2,0.3zM158.32167,150.21v0c1.08667,0 2.07667,-0.23333 2.97,-0.7c0.89333,-0.47333 1.58667,-1.06333 2.08,-1.77v0v-4.08h-3.69c-1.53333,0 -2.69667,0.35667 -3.49,1.07c-0.78667,0.72 -1.18,1.58333 -1.18,2.59v0c0,0.90667 0.29,1.61667 0.87,2.13c0.58667,0.50667 1.4,0.76 2.44,0.76zM176.85167,121.71h7.2v6.56h4.7v5.07h-4.7v13.63c0,1.04 0.21333,1.78333 0.64,2.23c0.43333,0.44667 1.01333,0.67 1.74,0.67v0c0.49333,0 0.92333,-0.02333 1.29,-0.07c0.37333,-0.04 0.79,-0.11 1.25,-0.21v0l0.62,5.22c-0.80667,0.25333 -1.60667,0.44 -2.4,0.56c-0.79333,0.12667 -1.65,0.19 -2.57,0.19v0c-2.49333,0 -4.41,-0.68667 -5.75,-2.06c-1.34667,-1.36667 -2.02,-3.53333 -2.02,-6.5v0v-13.66h-3.93v-5.07h3.93zM195.75167,121.71h7.2v6.56h4.7v5.07h-4.7v13.63c0,1.04 0.21333,1.78333 0.64,2.23c0.43333,0.44667 1.01333,0.67 1.74,0.67v0c0.49333,0 0.92667,-0.02333 1.3,-0.07c0.36667,-0.04 0.78,-0.11 1.24,-0.21v0l0.62,5.22c-0.80667,0.25333 -1.60667,0.44 -2.4,0.56c-0.78667,0.12667 -1.64333,0.19 -2.57,0.19v0c-2.49333,0 -4.41,-0.68667 -5.75,-2.06c-1.34667,-1.36667 -2.02,-3.53333 -2.02,-6.5v0v-13.66h-3.93v-5.07h3.93zM214.28167,121.54l-3.86,-0.74v-4.36h11.09v33.53l3.48,0.74v4.33h-14.2v-4.33l3.49,-0.74zM240.16167,155.56v0c-3.86,0 -6.94333,-1.23667 -9.25,-3.71c-2.31333,-2.48 -3.47,-5.62333 -3.47,-9.43v0v-0.99c0,-3.97333 1.09333,-7.24667 3.28,-9.82c2.18667,-2.57333 5.12,-3.85333 8.8,-3.84v0c3.60667,0 6.41,1.09 8.41,3.27c1.99333,2.17333 2.99,5.11667 2.99,8.83v0v3.93h-15.98l-0.05,0.15c0.13333,1.76667 0.72333,3.22 1.77,4.36c1.04667,1.13333 2.47,1.7 4.27,1.7v0c1.6,0 2.92667,-0.16 3.98,-0.48c1.05333,-0.32 2.20667,-0.82667 3.46,-1.52v0l1.96,4.45c-1.10667,0.87333 -2.53667,1.61 -4.29,2.21c-1.76,0.59333 -3.72,0.89 -5.88,0.89zM239.52167,133.34v0c-1.34,0 -2.39667,0.51 -3.17,1.53c-0.77333,1.02667 -1.25333,2.37333 -1.44,4.04v0l0.08,0.12h8.86v-0.64c0,-1.53333 -0.36,-2.76 -1.08,-3.68c-0.72,-0.91333 -1.80333,-1.37 -3.25,-1.37z"></path></g></g></svg>